<?xml version="1.0" encoding="UTF-8"?>
<svg xmlns="http://www.w3.org/2000/svg" xmlns:xlink="http://www.w3.org/1999/xlink" viewBox="0 0 662.27 184.68">
  <defs>
    <style>
      .cls-1 {
        fill: url(#linear-gradient);
      }

      .cls-2 {
        fill: #00042d;
      }

      .cls-3 {
        fill: #fff;
      }

      .cls-4 {
        fill: url(#linear-gradient-7);
      }

      .cls-4, .cls-5, .cls-6, .cls-7, .cls-8, .cls-9 {
        mix-blend-mode: multiply;
      }

      .cls-5 {
        fill: url(#linear-gradient-8);
      }

      .cls-6 {
        fill: url(#linear-gradient-2);
      }

      .cls-7 {
        fill: url(#linear-gradient-3);
      }

      .cls-10 {
        fill: url(#linear-gradient-9);
      }

      .cls-11 {
        fill: url(#linear-gradient-4);
      }

      .cls-12 {
        fill: url(#linear-gradient-6);
      }

      .cls-13 {
        fill: url(#linear-gradient-5);
      }

      .cls-14 {
        isolation: isolate;
      }

      .cls-8 {
        fill: url(#linear-gradient-10);
      }

      .cls-9 {
        fill: url(#linear-gradient-11);
      }
    </style>
    <linearGradient id="linear-gradient" x1="31.25" y1="209.68" x2="107.9" y2="6.62" gradientUnits="userSpaceOnUse">
      <stop offset="0" stop-color="#5c1cb2"/>
      <stop offset=".09" stop-color="#7118b3"/>
      <stop offset=".28" stop-color="#a80eb9"/>
      <stop offset=".55" stop-color="#ff00c1"/>
      <stop offset=".62" stop-color="#fd15ad"/>
      <stop offset=".77" stop-color="#fa4c7a"/>
      <stop offset=".98" stop-color="#f4a52a"/>
      <stop offset="1" stop-color="#f4ac24"/>
    </linearGradient>
    <linearGradient id="linear-gradient-2" x1="16.32" y1="77.55" x2="26.26" y2="137.53" gradientUnits="userSpaceOnUse">
      <stop offset="0" stop-color="#fff" stop-opacity="0"/>
      <stop offset=".32" stop-color="#c1a9e1" stop-opacity=".38"/>
      <stop offset=".64" stop-color="#8a5dc8" stop-opacity=".71"/>
      <stop offset=".88" stop-color="#682db8" stop-opacity=".92"/>
      <stop offset="1" stop-color="#5c1cb2"/>
    </linearGradient>
    <linearGradient id="linear-gradient-3" x1="144.39" y1="56.34" x2="154.32" y2="116.32" xlink:href="#linear-gradient-2"/>
    <linearGradient id="linear-gradient-4" x1="52.35" y1="217.65" x2="129" y2="14.58" xlink:href="#linear-gradient"/>
    <linearGradient id="linear-gradient-5" x1="100.74" y1="235.91" x2="177.39" y2="32.85" xlink:href="#linear-gradient"/>
    <linearGradient id="linear-gradient-6" x1="10.48" y1="201.85" x2="87.13" y2="-1.22" xlink:href="#linear-gradient"/>
    <linearGradient id="linear-gradient-7" x1="139.11" y1="127.14" x2="151.33" y2="205.46" gradientUnits="userSpaceOnUse">
      <stop offset="0" stop-color="#5cbffc" stop-opacity="0"/>
      <stop offset=".32" stop-color="#5c81e0" stop-opacity=".38"/>
      <stop offset=".64" stop-color="#5c4ac7" stop-opacity=".71"/>
      <stop offset=".88" stop-color="#5c28b7" stop-opacity=".92"/>
      <stop offset="1" stop-color="#5c1cb2"/>
    </linearGradient>
    <linearGradient id="linear-gradient-8" x1="27.79" y1="144.51" x2="40.02" y2="222.84" xlink:href="#linear-gradient-7"/>
    <linearGradient id="linear-gradient-9" x1="77.36" y1="227.09" x2="154.01" y2="24.02" xlink:href="#linear-gradient"/>
    <linearGradient id="linear-gradient-10" x1="45.75" y1="9.44" x2="49.61" y2="51.93" xlink:href="#linear-gradient-2"/>
    <linearGradient id="linear-gradient-11" x1="81.95" y1="40.3" x2="88.42" y2="76.73" xlink:href="#linear-gradient-2"/>
  </defs>
  <g class="cls-14">
    <g id="Capa_2" data-name="Capa 2">
      <g id="OBJECTS">
        <g>
          <g>
            <g>
              <path class="cls-3" d="M236.99,122.85V49.89h-29.34V27.08h83.89v22.81h-29.34V122.85h-25.21Z"/>
              <path class="cls-3" d="M325.02,67.63v55.22h-22.81V27.08h29.74l24.14,64.95,24.01-64.95h29.74V122.85h-22.81v-55.88l-20.67,55.88h-20.81l-20.54-55.22Z"/>
              <path class="cls-3" d="M427.85,122.85V27.08h37.35c30.28,0,49.35,19.47,49.35,47.35s-19.74,48.42-49.35,48.42h-37.35Zm25.21-21.74h10.67c16.67,0,24.94-8.67,24.94-26.68,0-16.94-8.54-25.61-24.94-25.61h-10.67v52.28Z"/>
              <path class="cls-3" d="M566.56,122.85h-39.61V27.08h38.41c20.94,0,34.01,9.2,34.01,25.88,0,8.4-4.4,14.94-12.4,19.74,9.74,4.13,15.21,11.2,15.21,21.34,0,18.01-13.34,28.81-35.61,28.81Zm-16.81-75.89v16.54h13.6c8.4,0,12.27-3.2,12.27-8.4s-3.87-8.14-12.27-8.14h-13.6Zm0,36.41v19.61h14.8c9.47,0,13.87-3.73,13.87-9.87s-4.4-9.74-13.87-9.74h-14.8Z"/>
            </g>
            <g>
              <path class="cls-3" d="M211.93,165.22v-16.93h-6.27v-1.74h14.46v1.74h-6.27v16.93h-1.92Z"/>
              <path class="cls-3" d="M233.14,165.22v-18.67h1.95v8.19h10.61v-8.19h1.95v18.67h-1.95v-8.79h-10.61v8.79h-1.95Z"/>
              <path class="cls-3" d="M273.47,165.22h-11.21v-18.67h11.02v1.69h-9.07v6.5h8.29v1.69h-8.29v7.1h9.26v1.69Z"/>
              <path class="cls-3" d="M305.14,149.39v15.83h-1.82v-18.67h2.52l6.92,16.28,6.97-16.28h2.5v18.67h-1.79v-15.83l-6.81,15.83h-1.72l-6.76-15.83Z"/>
              <path class="cls-3" d="M335.76,155.86c0-5.43,4-9.7,9.41-9.7s9.44,4.26,9.44,9.7-4.03,9.75-9.44,9.75-9.41-4.32-9.41-9.75Zm16.82,0c0-4.47-2.99-7.96-7.41-7.96s-7.41,3.48-7.41,7.96,3.02,8.01,7.41,8.01,7.41-3.54,7.41-8.01Z"/>
              <path class="cls-3" d="M374.5,165.22h-2.13l-6.97-18.67h2.03l6.03,16.43,6.08-16.43h1.95l-7,18.67Z"/>
              <path class="cls-3" d="M394.58,165.22v-18.67h1.95v18.67h-1.95Z"/>
              <path class="cls-3" d="M422.34,165.22h-11.21v-18.67h11.02v1.69h-9.07v6.5h8.29v1.69h-8.29v7.1h9.26v1.69Z"/>
              <path class="cls-3" d="M452.19,165.22v-18.67h5.3c5.98,0,9.28,3.8,9.28,9.26s-3.43,9.41-9.28,9.41h-5.3Zm1.95-1.69h3.3c4.73,0,7.36-3.09,7.36-7.72s-2.57-7.57-7.36-7.57h-3.3v15.29Z"/>
              <path class="cls-3" d="M490.31,160.05h-8.71l-1.98,5.17h-1.92l7.25-18.67h2.13l7.23,18.67h-2.05l-1.95-5.17Zm-8.11-1.59h7.49l-3.72-9.83-3.77,9.83Z"/>
              <path class="cls-3" d="M510.46,165.22v-16.93h-6.27v-1.74h14.46v1.74h-6.27v16.93h-1.92Z"/>
              <path class="cls-3" d="M541.14,160.05h-8.71l-1.98,5.17h-1.92l7.25-18.67h2.13l7.23,18.67h-2.05l-1.95-5.17Zm-8.11-1.59h7.49l-3.72-9.83-3.77,9.83Z"/>
              <path class="cls-3" d="M564.8,165.22h-6.45v-18.67h6.06c3.61,0,5.75,1.74,5.75,4.81,0,1.85-1.17,3.43-3.07,4.13,2.52,.62,3.82,2.26,3.82,4.5,0,3.33-2.44,5.23-6.11,5.23Zm-4.63-17.08v6.66h4.13c2.52,0,3.95-1.25,3.95-3.33s-1.43-3.33-3.95-3.33h-4.13Zm0,8.24v7.25h4.52c2.73,0,4.34-1.35,4.34-3.69s-1.61-3.56-4.34-3.56h-4.52Z"/>
              <path class="cls-3" d="M595.35,160.05h-8.71l-1.98,5.17h-1.92l7.25-18.67h2.13l7.23,18.67h-2.05l-1.95-5.17Zm-8.11-1.59h7.49l-3.72-9.83-3.77,9.83Z"/>
              <path class="cls-3" d="M618.36,165.48c-4.34,0-6.89-2.42-7.07-5.95h1.98c.18,2.65,1.85,4.37,5.07,4.37,2.65,0,4.73-1.35,4.73-3.59,0-1.92-1.09-2.81-3.74-3.35l-2.37-.47c-2.47-.49-5.07-1.64-5.07-4.89,0-2.99,2.63-5.3,6.34-5.3s6.45,2.29,6.66,5.85h-2c-.13-2.47-1.95-4.26-4.63-4.26-2.86,0-4.39,1.74-4.39,3.61,0,2.21,1.87,2.89,3.95,3.3l2.37,.49c3.15,.65,4.94,1.95,4.94,4.76,0,2.96-2.42,5.43-6.76,5.43Z"/>
              <path class="cls-3" d="M650.36,165.22h-11.21v-18.67h11.02v1.69h-9.07v6.5h8.29v1.69h-8.29v7.1h9.26v1.69Z"/>
            </g>
          </g>
          <g>
            <path class="cls-1" d="M162.47,61.27v50.16c0,2.2-.89,4.19-2.33,5.64-1.44,1.44-3.43,2.33-5.64,2.33-4.4,0-7.96-3.57-7.96-7.97v-14.72c-7.6-2.77-13.04-7.44-13.04-16v-15.21H39.22v15.21c0,7.33-3.99,11.12-9.9,14.54v16.19c0,2.21-.89,4.2-2.33,5.64-1.44,1.44-3.43,2.33-5.64,2.33-4.4,0-7.97-3.58-7.97-7.97V61.27c0-17.55,19.85-30.25,19.85-30.25C22.14,25.35,13.65,6.77,13.39,6.19h-.01c47.38-13.22,84.94,12.93,84.94,12.93C93.7,12.2,94.33,.12,94.33,.12c29.69-2.45,43.72,32.11,43.72,32.11,26.71-.42,24.42,29.04,24.42,29.04Z"/>
            <path class="cls-6" d="M13.38,104.95v6.48c0,4.4,3.57,7.98,7.97,7.98s7.97-3.57,7.97-7.97v-7.73c-2.44,.54-12.49,1.24-15.94,1.25Z"/>
            <path class="cls-7" d="M162.47,74.03c-5.94,2.52-12.06,4.69-18.09,6.83-3.49,1.24-6.99,2.39-10.5,3.51,1.35,6.28,6.22,10,12.65,12.34v14.72c0,4.4,3.57,7.97,7.97,7.97s7.97-3.57,7.97-7.98c0-10.29,0-23.05,0-37.4Z"/>
            <path class="cls-11" d="M85.28,118.36c-1.38,.12-2.75,.34-4.11,.63-2.74,.59-4.3,3.5-3.25,6.11l.02,.06c.78,1.92,3.06,3.11,5.09,2.71,.99-.19,1.98-.34,2.98-.43,2.39-.21,4.74-.12,7,.26,2.34,.39,4.59-1.05,5.17-3.35h0c.62-2.46-.92-4.96-3.4-5.48-3.06-.63-6.25-.81-9.5-.5Z"/>
            <path class="cls-13" d="M171.16,155.79c-7.92,18.98-28.4,18.92-39.09,17.46-13.29-1.81-20.37-12.06-24.47-22.42-4.04-10.22-6.32-21.03-4.72-27.06,1.39-5.27,8.77-9.21,22.47-11.35,16.01-2.51,42.94-3.13,48.25,7.89,1.95,4.05,5.58,16.24-2.45,35.48Z"/>
            <path class="cls-12" d="M2.53,120.31c5.31-11.02,32.24-10.4,48.25-7.89,13.7,2.15,21.08,6.09,22.47,11.35,1.59,6.03-.69,16.84-4.72,27.06-4.1,10.37-11.17,20.62-24.47,22.42-10.69,1.45-31.17,1.52-39.09-17.46-8.02-19.24-4.4-31.43-2.45-35.48Z"/>
            <path class="cls-4" d="M118.37,167.1c3.63,3.13,8.11,5.39,13.71,6.15,10.5,1.43,30.42,1.5,38.64-16.46-10.98,12.36-41.94,15.81-52.34,10.31Z"/>
            <path class="cls-5" d="M7.71,160.92c9.18,13.82,26.73,13.64,36.36,12.34,3.96-.54,7.35-1.84,10.29-3.65-15.75,2.55-35.55,.82-46.65-8.69Z"/>
            <g>
              <path class="cls-2" d="M133.84,129.8c-1.58-1.18-3.37-1.85-5.28-1.85-2.47,0-4.75,1.13-6.61,3.03,2.66,.52,4.67,2.86,4.67,5.67,0,3.19-2.59,5.78-5.78,5.78-1.29,0-2.47-.44-3.43-1.15-.11,.9-.19,1.81-.19,2.76,0,8.89,5.08,16.09,11.35,16.09s11.35-7.2,11.35-16.09c0-6.18-2.46-11.54-6.07-14.24Z"/>
              <path class="cls-2" d="M51.37,129.8c-1.58-1.18-3.37-1.85-5.28-1.85-2.47,0-4.75,1.13-6.61,3.03,2.66,.52,4.67,2.86,4.67,5.67,0,3.19-2.59,5.78-5.78,5.78-1.29,0-2.47-.43-3.43-1.15-.11,.9-.19,1.81-.19,2.76,0,8.89,5.08,16.09,11.35,16.09s11.35-7.2,11.35-16.09c0-6.18-2.46-11.54-6.07-14.24Z"/>
            </g>
            <circle class="cls-3" cx="121.78" cy="137.09" r="6.09"/>
            <circle class="cls-3" cx="38.6" cy="137.09" r="6.09"/>
            <path class="cls-10" d="M110.71,169.53c-1.46-1.59-4.44-3.78-9.45-3.51-3.05,.16-3.2,2.27-2.13,3.18,2.12,1.8,3.44,2.45,3.87,3.39-3.91,4.1-7.51,5.39-10.93,5.57-3.55,.19-7.56,.26-11.83-2.07-2.31-1.26-3.51-.18-1.98,2.1,1.66,2.49,5.34,6.41,14.78,6.49,5.19,.04,10.9-2.56,14.55-6.45,2.24,2.33,2.46,5.19,3.49,5.47,1.43,.39,2.96-1.58,2.76-5.54-.13-2.42-.95-6.24-3.13-8.63Z"/>
            <path class="cls-8" d="M48.81,13.07c12.95,5.1,31.34,21.91,31.34,21.91,0,0-26.85,6.14-46.92-3.95C22.14,25.35,13.65,6.77,13.39,6.19c.46,.4,16.94-.4,35.42,6.88Z"/>
            <path class="cls-9" d="M124.81,56.81H47.9c-4.8,0-8.69,3.89-8.69,8.69h94.28c0-4.8-3.89-8.69-8.69-8.69Z"/>
          </g>
        </g>
      </g>
    </g>
  </g>
</svg>